<?xml version="1.0" standalone="no"?>
<!DOCTYPE svg PUBLIC "-//W3C//DTD SVG 20010904//EN"
 "http://www.w3.org/TR/2001/REC-SVG-20010904/DTD/svg10.dtd">
<svg version="1.0" xmlns="http://www.w3.org/2000/svg"
 width="16.000000pt" height="16.000000pt" viewBox="0 0 16.000000 16.000000"
 preserveAspectRatio="xMidYMid meet">
<metadata>
Created by potrace 1.11, written by Peter Selinger 2001-2013
</metadata>
<g transform="translate(0.000000,16.000000) scale(0.004167,-0.004167)"
fill="#000000" stroke="none">
<path d="M1809 3768 c-68 -39 -144 -82 -169 -95 -136 -77 -180 -105 -181 -116
-1 -7 -2 -126 -3 -264 -1 -249 -1 -253 19 -247 22 7 21 7 283 154 136 76 188
101 205 96 13 -3 76 -36 140 -73 65 -37 125 -72 135 -78 9 -5 80 -47 157 -91
77 -45 156 -91 175 -101 19 -11 62 -36 95 -55 33 -20 80 -47 105 -61 179 -100
361 -206 385 -224 l30 -21 -4 -509 c-6 -916 -5 -869 -25 -892 -10 -11 -95 -62
-190 -114 -94 -52 -191 -106 -216 -120 -112 -62 -489 -272 -530 -294 -25 -14
-105 -59 -179 -100 -151 -84 -151 -85 -246 -30 -657 376 -1094 632 -1108 650
-18 20 -19 39 -13 307 3 157 9 463 12 680 4 217 10 405 15 418 5 13 22 31 39
40 51 29 53 43 55 300 1 130 0 242 -3 249 -5 16 -13 12 -212 -101 -96 -54
-201 -113 -234 -130 -108 -57 -104 -50 -106 -237 -1 -90 -3 -258 -5 -374 -15
-982 -15 -1351 -2 -1367 8 -10 79 -55 158 -101 178 -103 911 -527 959 -554 19
-11 145 -84 280 -163 202 -117 252 -142 285 -143 34 0 103 36 490 259 248 143
608 350 800 459 193 110 363 212 379 226 l30 26 2 154 c1 85 5 505 8 935 6
752 5 781 -13 800 -10 11 -144 94 -297 184 -279 164 -900 530 -1175 694 -81
48 -160 88 -176 90 -23 3 -60 -13 -154 -66z"/>
<path d="M1131 3435 c-129 -74 -243 -143 -254 -154 -20 -19 -20 -36 -21 -1010
-1 -978 -1 -991 19 -1010 11 -11 205 -124 430 -252 634 -358 599 -340 634
-333 17 4 36 13 42 20 6 8 15 14 20 14 4 0 32 14 61 31 44 27 531 302 825 467
45 26 86 56 91 67 5 11 8 284 8 607 -1 574 -1 588 -21 607 -18 18 -873 537
-992 603 -64 35 -37 47 -340 -150 -138 -89 -227 -141 -231 -135 -4 6 -7 180
-7 387 0 329 -2 376 -15 375 -8 0 -120 -60 -249 -134z m844 -983 c17 -10 55
-32 85 -49 64 -35 368 -209 390 -222 13 -8 15 -50 14 -283 0 -150 -4 -284 -7
-298 -4 -16 -27 -37 -64 -59 -32 -19 -144 -85 -249 -148 -106 -62 -201 -113
-211 -113 -11 0 -40 11 -64 23 -77 41 -464 268 -474 278 -9 9 -15 537 -7 587
3 17 35 39 131 91 69 39 182 102 251 140 68 39 136 71 150 71 14 0 39 -8 55
-18z"/>
</g>
</svg>
