<?xml version="1.0" standalone="no"?>
<!DOCTYPE svg PUBLIC "-//W3C//DTD SVG 20010904//EN"
 "http://www.w3.org/TR/2001/REC-SVG-20010904/DTD/svg10.dtd">
<svg version="1.0" xmlns="http://www.w3.org/2000/svg"
 width="383.000000pt" height="383.000000pt" viewBox="0 0 383.000000 383.000000"
 preserveAspectRatio="xMidYMid meet">
<metadata>
Created by potrace 1.11, written by Peter Selinger 2001-2013
</metadata>
<g transform="translate(0.000000,383.000000) scale(0.100000,-0.100000)"
fill="#000000" stroke="none">
<path d="M1791 3776 c-51 -31 -95 -56 -97 -56 -1 0 -29 -16 -61 -35 l-58 -35
-5 -57 c-3 -32 -4 -151 -2 -265 l3 -207 156 91 c93 54 167 91 182 90 15 0 136
-64 271 -143 135 -78 261 -151 280 -161 19 -11 176 -101 348 -201 280 -162
313 -184 320 -211 4 -17 8 -333 7 -703 0 -632 -1 -673 -18 -691 -10 -11 -102
-69 -205 -128 -103 -59 -254 -147 -337 -195 -82 -48 -166 -96 -185 -107 -19
-11 -130 -74 -246 -141 -119 -68 -223 -121 -237 -121 -14 0 -102 44 -197 100
-95 55 -174 100 -175 100 -2 0 -269 154 -345 199 -8 5 -118 69 -244 141 -127
73 -237 139 -245 148 -14 14 -16 121 -18 975 -1 527 -4 961 -6 964 -3 2 -35
-14 -72 -36 -37 -23 -69 -41 -72 -41 -2 0 -29 -16 -59 -35 -30 -19 -56 -35
-58 -35 -13 0 -134 -78 -153 -98 l-23 -23 0 -937 c0 -732 3 -942 13 -962 9
-17 120 -87 362 -228 193 -111 357 -206 365 -209 8 -4 31 -16 50 -28 154 -96
844 -486 868 -491 35 -7 30 -10 342 171 135 78 265 153 290 167 25 14 108 62
184 107 76 44 140 81 142 81 1 0 48 27 104 60 56 33 104 60 107 60 3 0 25 14
50 30 24 17 46 30 49 30 2 0 37 19 77 43 39 24 125 74 190 112 65 37 125 79
134 92 14 21 16 128 16 959 0 905 0 936 -19 960 -15 20 -380 238 -714 427 -19
10 -91 52 -160 92 -69 40 -141 82 -160 92 -19 11 -107 62 -195 113 -88 51
-210 121 -272 157 -152 87 -156 87 -272 19z"/>
<path d="M1200 3429 c-85 -49 -162 -93 -170 -99 -8 -5 -39 -23 -68 -40 -30
-18 -57 -41 -62 -56 -6 -16 -10 -386 -10 -965 0 -896 1 -940 18 -957 10 -10
77 -52 148 -92 71 -41 253 -146 404 -233 399 -231 449 -259 459 -253 6 3 394
225 454 259 393 227 507 293 530 309 l27 19 0 583 c0 501 -2 585 -15 596 -16
13 -125 80 -131 80 -2 0 -49 27 -105 60 -55 33 -102 60 -103 60 -2 0 -76 43
-165 95 -90 52 -166 95 -169 95 -3 0 -13 6 -21 14 -9 7 -47 30 -85 50 -38 21
-90 51 -115 67 -26 16 -63 35 -83 43 l-35 15 -209 -121 c-115 -66 -229 -132
-254 -145 -25 -14 -49 -29 -55 -34 -5 -5 -13 -9 -17 -9 -4 0 -9 168 -10 374
l-3 374 -155 -89z m983 -1046 c126 -73 231 -133 235 -133 3 0 14 -7 24 -17 17
-15 18 -39 18 -328 0 -238 -3 -315 -12 -323 -18 -14 -447 -261 -517 -298 -25
-13 -36 -9 -176 75 -33 20 -71 42 -85 49 -14 7 -88 50 -165 95 l-140 82 0 320
0 319 80 48 c44 27 89 53 100 58 11 5 97 54 190 108 153 89 172 98 195 88 14
-6 128 -71 253 -143z"/>
</g>
</svg>
