<?xml version="1.0" encoding="UTF-8"?>
<svg width="179px" height="122px" viewBox="0 0 179 122" version="1.1" xmlns="http://www.w3.org/2000/svg" xmlns:xlink="http://www.w3.org/1999/xlink">
    <!-- Generator: Sketch 42 (36781) - http://www.bohemiancoding.com/sketch -->
    <title>boldr</title>
    <desc>Created with Sketch.</desc>
    <defs></defs>
    <g id="Page-1-Copy" stroke="none" stroke-width="1" fill="none" fill-rule="evenodd">
        <g id="boldr" transform="translate(1.000000, 0.000000)">
            <g id="_x33_HbLRe.tif" transform="translate(0.000000, 1.000000)">
                <g id="Group">
                    <path d="M17.8228739,36.03125 C17.8228739,36.5625 17.0070381,37.28125 16.3794721,37.59375 C15.0615836,38.21875 14.6536657,39.0625 14.6222874,40.5 C14.4653959,54.15625 14.2143695,67.78125 13.9319648,81.40625 C13.9005865,82.71875 14.3398827,83.375 15.4381232,84 C27.3618768,90.8125 39.2542522,97.65625 51.1780059,104.53125 C51.9624633,105 52.5900293,105.09375 53.4686217,104.625 C66.0826979,97.59375 78.7281525,90.59375 91.4049853,83.65625 C92.5346041,83.03125 92.8797654,82.3125 92.8797654,81.0625 C92.9739003,67.53125 93.0994135,54 93.2876833,40.4375 C93.2876833,39.25 92.9739003,38.53125 91.9070381,37.9375 C79.826393,31.0625 67.7771261,24.15625 55.7592375,17.1875 C54.7237537,16.59375 54.0020528,16.59375 52.9351906,17.1875 C48.8246334,19.5625 44.6513196,21.8125 40.5093842,24.125 C40.070088,24.375 39.5994135,24.5625 38.9090909,24.90625 L38.9090909,19.125 C38.9090909,16.0625 38.9404692,12.96875 38.9090909,9.90625 C38.8777126,8.9375 39.1914956,8.40625 40.0387097,7.9375 C44.3375367,5.5625 48.6049853,3.1875 52.8410557,0.71875 C54.0334311,0.03125 54.9120235,0.0625 56.1043988,0.75 C66.9926686,7.25 77.943695,13.65625 88.8947214,20.09375 C94.4173021,23.34375 99.971261,26.59375 105.52522,29.8125 C106.372434,30.3125 106.843109,30.8125 106.81173,31.875 C106.654839,50.5625 106.497947,69.25 106.403812,87.96875 C106.403812,89.40625 105.933138,90.15625 104.678006,90.875 C88.1730205,100.25 71.6680352,109.65625 55.2258065,119.125 C53.6882698,120 52.6214076,119.96875 51.1152493,119.09375 C34.6102639,109.53125 18.1052786,100.0625 1.56891496,90.5625 C0.470674487,89.9375 0.0627565982,89.25 0.0941348974,87.96875 C0.376539589,69.125 0.627565982,50.28125 0.847214076,31.4375 C0.847214076,30.59375 0.847214076,29.875 1.78856305,29.34375 C6.90322581,26.53125 11.9865103,23.65625 17.0697947,20.78125 C17.1953079,20.75 17.414956,20.71875 17.8856305,20.5625 C17.8856305,25.84375 17.9170088,30.9375 17.8228739,36.03125 Z" id="Shape" stroke="#DD144D" fill="#DF1356"></path>
                    <path d="M36.71261,33.09375 C38.6580645,31.84375 40.383871,30.78125 42.0782991,29.6875 C45.4671554,27.53125 48.8560117,25.375 52.2134897,23.1875 C53.0293255,22.65625 53.5941349,22.625 54.441349,23.15625 C64.7648094,29.40625 75.0882698,35.625 85.4431085,41.78125 C86.3217009,42.3125 86.6354839,42.84375 86.6354839,43.875 C86.6041056,55.59375 86.6041056,67.3125 86.6354839,79.03125 C86.6354839,79.875 86.5099707,80.4375 85.6627566,80.9375 C75.2765396,86.75 64.8903226,92.59375 54.5668622,98.46875 C53.5941349,99.03125 52.9038123,98.90625 52.0252199,98.40625 C41.7958944,92.625 31.5665689,86.84375 21.3372434,81.09375 C20.458651,80.59375 20.0821114,80.09375 20.0821114,79.0625 C20.1134897,59.03125 20.1134897,38.96875 20.144868,18.9375 C20.144868,18.34375 20.5214076,17.46875 20.9920821,17.1875 C25.9498534,14.3125 30.9703812,11.53125 35.9595308,8.71875 C36.1164223,8.5625 36.3360704,8.53125 36.71261,8.4375 L36.71261,33.09375 Z M36.398827,61.0625 C36.398827,63.8125 36.4302053,66.59375 36.3674487,69.34375 C36.3674487,70.21875 36.5557185,70.75 37.3715543,71.21875 C42.486217,74.125 47.5695015,77.125 52.7155425,80.03125 C53.2175953,80.3125 54.127566,80.28125 54.6296188,80 C59.6501466,77.125 64.6392962,74.15625 69.5970674,71.15625 C70.0991202,70.84375 70.5384164,70.0625 70.5384164,69.5 C70.601173,64.03125 70.5697947,58.5625 70.601173,53.125 C70.601173,52.21875 70.28739,51.71875 69.5029326,51.3125 C64.4510264,48.5 59.3991202,45.6875 54.3472141,42.8125 C53.5627566,42.375 52.9979472,42.40625 52.2134897,42.84375 C47.3184751,45.59375 42.3607038,48.34375 37.4343109,51.03125 C36.6498534,51.46875 36.3360704,51.96875 36.3674487,52.875 C36.4302053,55.5625 36.398827,58.3125 36.398827,61.0625 L36.398827,61.0625 Z" id="Shape" stroke="#424242" fill="#22262D"></path>
                </g>
            </g>
            <text id="ldr" font-family="NewGroteskSquareFOUR-Medium, New Grotesk Square FOUR" font-size="98" font-weight="400" letter-spacing="-3.37621951" fill="#22262D">
                <tspan x="107" y="93">ldr</tspan>
            </text>
        </g>
    </g>
</svg>