<?xml version="1.0" standalone="no"?>
<!DOCTYPE svg PUBLIC "-//W3C//DTD SVG 20010904//EN"
 "http://www.w3.org/TR/2001/REC-SVG-20010904/DTD/svg10.dtd">
<svg version="1.0" xmlns="http://www.w3.org/2000/svg"
 width="768.000000pt" height="768.000000pt" viewBox="0 0 768.000000 768.000000"
 preserveAspectRatio="xMidYMid meet">
<metadata>
Created by potrace 1.11, written by Peter Selinger 2001-2013
</metadata>
<g transform="translate(0.000000,768.000000) scale(0.100000,-0.100000)"
fill="#000000" stroke="none">
<path d="M3807 7642 c-40 -20 -95 -51 -124 -69 -29 -18 -54 -33 -57 -33 -3 0
-29 -14 -58 -31 -61 -37 -65 -39 -263 -151 -82 -46 -157 -88 -165 -91 -22 -10
-114 -63 -161 -92 -70 -45 -69 -33 -69 -600 l0 -505 72 36 c64 32 114 60 303
164 28 15 93 52 146 82 52 30 102 57 110 61 8 4 21 11 29 17 29 19 195 112
250 140 88 45 96 42 397 -130 147 -85 287 -166 310 -182 23 -15 45 -28 49 -28
3 0 40 -20 81 -45 40 -25 78 -45 83 -45 5 0 15 -6 22 -13 7 -7 38 -27 68 -44
84 -46 252 -143 280 -161 14 -9 27 -17 30 -17 3 0 48 -26 100 -57 52 -31 112
-65 133 -77 60 -34 99 -56 155 -90 29 -17 57 -31 62 -31 6 0 10 -4 10 -10 0
-5 5 -10 12 -10 6 0 64 -31 129 -70 64 -38 119 -70 122 -70 3 0 51 -27 106
-60 56 -33 105 -60 110 -60 5 0 11 -3 13 -7 2 -5 17 -15 33 -24 175 -94 238
-144 245 -194 7 -53 -5 -1424 -13 -1432 -3 -2 -1 -20 3 -39 4 -18 5 -34 1 -34
-3 0 -7 -253 -8 -563 -1 -309 -4 -586 -7 -615 -9 -86 6 -75 -406 -305 -19 -11
-69 -38 -110 -60 -41 -23 -116 -64 -165 -91 -50 -28 -108 -60 -130 -71 -22
-11 -42 -22 -45 -25 -3 -3 -63 -38 -135 -77 -181 -99 -226 -123 -260 -143 -16
-9 -61 -34 -98 -54 -37 -20 -83 -46 -102 -56 -143 -81 -194 -110 -320 -178
-66 -36 -122 -68 -125 -71 -3 -3 -25 -17 -50 -30 -74 -38 -133 -71 -165 -90
-16 -10 -66 -37 -110 -61 -44 -23 -84 -46 -90 -50 -16 -11 -145 -81 -195 -106
-27 -13 -56 -20 -73 -17 -22 3 -242 123 -357 193 -26 16 -174 101 -230 132
-19 11 -48 28 -65 39 -16 10 -37 22 -45 26 -8 4 -64 35 -123 70 -60 35 -127
74 -150 87 -23 13 -81 46 -129 75 -48 28 -91 51 -97 51 -6 0 -11 5 -11 10 0 6
-4 10 -9 10 -8 0 -209 114 -446 253 -38 23 -89 51 -113 64 -24 13 -60 34 -80
48 -20 14 -40 25 -44 25 -4 0 -32 16 -62 35 -30 19 -60 35 -66 35 -5 0 -10 4
-10 10 0 5 -3 9 -7 8 -5 -1 -19 5 -33 14 -55 35 -222 128 -231 128 -5 0 -9 5
-9 10 0 6 -7 10 -15 10 -8 0 -15 4 -15 8 0 5 -11 14 -23 19 -13 6 -32 28 -41
48 -18 38 -18 99 0 1005 5 265 11 668 19 1205 7 540 8 556 32 597 10 18 46 51
79 72 108 70 99 17 102 603 l3 513 -41 -15 c-35 -12 -125 -59 -195 -102 -11
-7 -31 -18 -45 -25 -22 -12 -150 -84 -190 -108 -48 -28 -144 -82 -205 -115
-38 -21 -119 -66 -180 -100 -60 -35 -126 -72 -146 -83 -67 -37 -78 -46 -90
-71 -13 -28 -15 -106 -24 -761 -2 -206 -7 -553 -10 -770 -19 -1398 -25 -1890
-27 -2070 -2 -205 4 -223 101 -285 36 -23 86 -53 111 -66 25 -13 46 -27 48
-31 2 -5 7 -8 12 -8 4 0 77 -40 162 -89 84 -48 257 -148 383 -221 127 -73 248
-143 270 -157 22 -13 48 -26 58 -30 9 -3 17 -9 17 -14 0 -5 5 -9 10 -9 9 0
268 -146 320 -180 8 -6 24 -14 35 -19 11 -5 37 -21 58 -35 21 -14 40 -26 44
-26 3 0 59 -31 124 -70 65 -38 122 -70 128 -70 5 0 11 -4 13 -8 2 -6 100 -64
307 -182 14 -8 33 -20 41 -25 8 -5 17 -10 20 -10 3 0 16 -8 30 -16 30 -19 204
-120 435 -254 94 -54 234 -136 312 -182 78 -45 145 -83 148 -83 4 0 26 -13 50
-30 24 -16 50 -30 58 -30 7 0 17 -3 21 -7 10 -10 35 -14 87 -14 33 0 66 10
120 38 41 21 76 40 79 43 5 5 16 12 99 58 25 14 78 44 116 67 39 22 77 44 85
48 8 4 24 13 35 20 11 7 51 30 90 52 38 22 79 46 90 52 11 7 32 18 48 25 15 7
27 16 27 20 0 4 4 8 9 8 6 0 36 15 68 34 32 19 62 34 67 34 5 0 12 4 15 9 3 5
42 30 86 55 80 45 319 182 385 221 19 11 49 28 65 37 28 15 112 64 215 124 25
15 57 32 73 39 15 6 27 15 27 19 0 4 4 8 10 8 5 0 38 17 72 38 35 20 77 44 93
52 17 8 35 19 40 23 22 17 396 227 404 227 5 0 11 3 13 8 4 10 395 232 408
232 5 0 10 3 10 8 0 4 31 23 68 42 37 19 69 38 72 41 3 3 41 25 85 50 44 24
87 48 97 54 9 5 37 21 62 34 25 14 55 33 66 43 10 10 22 18 26 18 15 0 51 59
61 100 2 8 6 308 8 665 3 358 7 967 10 1355 12 1516 13 1665 3 1689 -10 28
-61 78 -93 92 -11 5 -37 19 -57 31 -20 13 -79 47 -130 77 -51 30 -101 61 -110
69 -10 8 -18 11 -18 7 0 -4 -8 -1 -17 7 -10 8 -58 38 -108 67 -49 29 -97 56
-105 62 -86 54 -785 459 -791 459 -5 0 -9 5 -9 10 0 6 -4 10 -9 10 -7 0 -439
251 -508 296 -13 8 -26 15 -30 15 -5 0 -15 6 -23 13 -8 7 -100 63 -205 125
-104 62 -197 116 -205 121 -102 63 -304 180 -311 180 -5 0 -9 5 -9 10 0 6 -4
10 -9 10 -5 0 -112 61 -238 136 -278 166 -292 173 -343 178 -33 3 -57 -4 -113
-32z"/>
<path d="M2745 7141 c-6 -4 -41 -25 -80 -46 -38 -21 -74 -41 -80 -45 -5 -4
-37 -22 -70 -40 -103 -55 -260 -144 -265 -150 -3 -3 -19 -12 -35 -21 -62 -32
-120 -64 -125 -70 -3 -3 -30 -18 -60 -33 -30 -16 -57 -31 -60 -35 -3 -4 -34
-22 -70 -40 -98 -51 -148 -88 -167 -124 -16 -30 -18 -160 -21 -1994 -3 -2169
-8 -1993 62 -2046 19 -15 37 -27 41 -27 3 0 22 -10 43 -23 20 -13 62 -37 92
-54 115 -63 206 -114 220 -123 15 -9 229 -131 325 -185 28 -15 79 -45 115 -65
36 -21 81 -47 100 -57 19 -11 121 -69 225 -128 222 -126 216 -123 365 -205 63
-35 117 -68 118 -72 2 -4 8 -8 14 -8 5 0 48 -22 95 -50 47 -27 88 -50 93 -50
4 0 13 -7 20 -15 7 -9 15 -14 17 -11 2 2 30 -11 61 -30 69 -42 114 -55 151
-44 30 8 192 90 201 101 5 7 40 27 129 76 25 13 62 34 81 45 19 12 64 37 100
56 36 20 67 38 70 41 3 3 21 14 40 25 52 27 136 74 192 107 27 16 51 29 53 29
3 0 28 15 57 33 29 18 71 42 93 52 22 11 42 23 45 26 3 3 37 23 75 44 39 21
86 47 105 58 19 11 85 48 145 82 61 34 220 124 355 199 135 76 264 150 288
165 80 49 74 -48 74 1260 0 1068 -1 1171 -17 1200 -14 29 -153 130 -203 148
-10 4 -19 9 -22 13 -4 5 -524 318 -575 346 -22 12 -281 169 -305 184 -36 24
-468 284 -495 299 -16 9 -32 18 -35 21 -7 7 -339 208 -403 244 -69 38 -105 32
-205 -32 -42 -28 -129 -83 -192 -123 -63 -41 -116 -77 -118 -81 -2 -4 -7 -8
-12 -8 -7 0 -112 -66 -405 -255 -27 -18 -79 -51 -114 -74 -35 -22 -68 -41 -73
-41 -4 0 -8 351 -8 780 0 744 -1 780 -18 780 -10 0 -22 -4 -27 -9z m1209
-2241 c49 -28 93 -50 98 -50 4 0 8 -4 8 -8 0 -4 12 -13 28 -19 15 -7 50 -25
77 -41 130 -75 198 -112 206 -112 5 0 9 -3 9 -7 0 -5 10 -13 23 -19 28 -13
312 -171 352 -196 17 -10 37 -21 45 -25 51 -23 108 -66 119 -89 13 -30 14
-1079 0 -1128 -10 -33 -44 -74 -74 -87 -24 -11 -296 -174 -310 -186 -10 -9
-471 -280 -606 -357 -54 -31 -113 -23 -181 25 -14 11 -33 19 -42 19 -9 0 -16
5 -16 10 0 6 -10 14 -23 19 -21 8 -162 88 -197 111 -8 6 -28 17 -45 26 -16 8
-43 23 -60 34 -16 10 -46 27 -65 38 -53 29 -99 56 -158 91 -29 17 -56 31 -59
31 -4 0 -14 6 -22 14 -9 8 -38 26 -66 40 -97 51 -188 111 -207 136 -17 24 -18
56 -18 592 0 338 4 576 9 591 11 28 115 93 311 194 30 15 57 30 60 34 3 3 34
21 70 40 36 19 67 37 68 42 2 4 9 7 16 7 7 0 33 13 58 29 25 16 49 27 52 24 3
-4 6 -1 6 5 0 7 4 12 9 12 8 0 178 93 221 121 8 5 29 16 45 25 17 8 48 25 70
38 60 36 89 32 189 -24z"/>
</g>
</svg>
